<?xml version="1.0" encoding="UTF-8"?>
<!DOCTYPE svg PUBLIC "-//W3C//DTD SVG 1.1//EN" "http://www.w3.org/Graphics/SVG/1.1/DTD/svg11.dtd">
<svg xmlns="http://www.w3.org/2000/svg" version="1.1" width="310px" height="301px" style="shape-rendering:geometricPrecision; text-rendering:geometricPrecision; image-rendering:optimizeQuality; fill-rule:evenodd; clip-rule:evenodd" xmlns:xlink="http://www.w3.org/1999/xlink">
<g><path style="opacity:0.939" fill="#070402" d="M 9.5,-0.5 C 11.8333,-0.5 14.1667,-0.5 16.5,-0.5C 16.5,0.166667 16.8333,0.5 17.5,0.5C 20.4481,6.44829 24.7815,11.115 30.5,14.5C 33.3035,15.6378 36.3035,15.8045 39.5,15C 48.5569,10.077 58.2236,8.24366 68.5,9.5C 72.4237,11.1472 76.4237,12.8139 80.5,14.5C 82.4602,16.1563 84.4602,17.823 86.5,19.5C 87.9108,21.914 89.9108,23.5806 92.5,24.5C 92.8333,25.5 93.5,26.1667 94.5,26.5C 94.6107,27.1174 94.944,27.6174 95.5,28C 100.352,28.8151 105.019,28.6484 109.5,27.5C 112.495,27.7062 115.162,27.0395 117.5,25.5C 119.099,25.7678 120.432,25.4345 121.5,24.5C 125.167,24.5 128.833,24.5 132.5,24.5C 133.568,25.4345 134.901,25.7678 136.5,25.5C 138.975,27.0057 141.642,28.3391 144.5,29.5C 147.166,27.1647 150.166,25.3314 153.5,24C 153.547,17.1589 156.547,12.1589 162.5,9C 169.057,8.11015 173.724,10.6102 176.5,16.5C 176.5,19.5 176.5,22.5 176.5,25.5C 175.596,26.209 175.263,27.209 175.5,28.5C 174.596,29.209 174.263,30.209 174.5,31.5C 173.662,31.8417 173.328,32.5084 173.5,33.5C 172.596,34.209 172.263,35.209 172.5,36.5C 171.366,38.9664 171.199,41.633 172,44.5C 172.377,45.9423 173.21,46.9423 174.5,47.5C 174.5,49.5 175.5,50.5 177.5,50.5C 177.973,51.9063 178.973,52.573 180.5,52.5C 185.149,55.0761 189.816,55.0761 194.5,52.5C 196.553,52.5979 198.22,51.9313 199.5,50.5C 200.791,50.7373 201.791,50.404 202.5,49.5C 208.929,48.1231 215.429,47.1231 222,46.5C 226.559,46.8458 231.059,47.5124 235.5,48.5C 236.93,49.5375 238.597,50.2041 240.5,50.5C 245.46,53.7923 249.793,57.7923 253.5,62.5C 253.795,64.4233 254.628,66.0899 256,67.5C 256.414,67.0426 256.914,66.7093 257.5,66.5C 257.833,67.1667 258.167,67.8333 258.5,68.5C 259.522,68.1445 260.189,67.4778 260.5,66.5C 263.116,55.8585 269.45,52.6918 279.5,57C 280.977,58.8121 282.31,60.6455 283.5,62.5C 283.563,67.2029 283.229,71.8696 282.5,76.5C 281.662,76.8417 281.328,77.5084 281.5,78.5C 280.662,78.8417 280.328,79.5084 280.5,80.5C 278.983,84.5595 278.316,88.8929 278.5,93.5C 278.278,97.7968 278.945,101.797 280.5,105.5C 281.878,111.26 284.545,116.26 288.5,120.5C 288.328,121.492 288.662,122.158 289.5,122.5C 289.738,124.404 290.738,125.738 292.5,126.5C 292.328,127.492 292.662,128.158 293.5,128.5C 294.669,131.511 296.336,134.178 298.5,136.5C 298.427,138.027 299.094,139.027 300.5,139.5C 300.328,140.492 300.662,141.158 301.5,141.5C 301.328,142.492 301.662,143.158 302.5,143.5C 302.402,145.553 303.069,147.22 304.5,148.5C 304.928,151.785 305.928,154.785 307.5,157.5C 308.805,168.83 308.805,180.164 307.5,191.5C 306.076,193.515 305.41,195.848 305.5,198.5C 304.069,199.78 303.402,201.447 303.5,203.5C 302.662,203.842 302.328,204.508 302.5,205.5C 301.662,205.842 301.328,206.508 301.5,207.5C 300.662,207.842 300.328,208.508 300.5,209.5C 299.094,209.973 298.427,210.973 298.5,212.5C 297.094,212.973 296.427,213.973 296.5,215.5C 295.833,215.5 295.5,215.833 295.5,216.5C 292.833,218.5 290.5,220.833 288.5,223.5C 287.833,223.5 287.5,223.833 287.5,224.5C 285.973,224.427 284.973,225.094 284.5,226.5C 283.508,226.328 282.842,226.662 282.5,227.5C 280.847,227.66 279.514,228.326 278.5,229.5C 276.265,229.205 274.265,229.539 272.5,230.5C 271.833,230.5 271.5,230.833 271.5,231.5C 270.596,232.209 270.263,233.209 270.5,234.5C 269.662,234.842 269.328,235.508 269.5,236.5C 267.466,238.655 267.133,240.988 268.5,243.5C 269.11,245.434 270.11,247.101 271.5,248.5C 271.5,251.833 271.5,255.167 271.5,258.5C 270.662,258.842 270.328,259.508 270.5,260.5C 269.094,260.973 268.427,261.973 268.5,263.5C 267.833,263.5 267.5,263.833 267.5,264.5C 265.457,265.579 264.124,267.246 263.5,269.5C 262.833,269.5 262.5,269.833 262.5,270.5C 261.833,270.5 261.5,270.833 261.5,271.5C 260.833,271.5 260.5,271.833 260.5,272.5C 259.833,272.5 259.5,272.833 259.5,273.5C 258.833,273.5 258.5,273.833 258.5,274.5C 257.833,274.5 257.5,274.833 257.5,275.5C 256.833,275.5 256.5,275.833 256.5,276.5C 255.833,276.5 255.5,276.833 255.5,277.5C 254.508,277.328 253.842,277.662 253.5,278.5C 252.833,278.5 252.5,278.833 252.5,279.5C 251.833,279.5 251.5,279.833 251.5,280.5C 250.833,280.5 250.5,280.833 250.5,281.5C 249.508,281.328 248.842,281.662 248.5,282.5C 247.833,282.5 247.5,282.833 247.5,283.5C 243.167,284.833 238.833,284.833 234.5,283.5C 232.838,282.015 231.005,280.682 229,279.5C 227.541,279.808 226.374,280.475 225.5,281.5C 224.508,281.328 223.842,281.662 223.5,282.5C 222.209,282.263 221.209,282.596 220.5,283.5C 219.508,283.328 218.842,283.662 218.5,284.5C 217.388,286.599 216.721,288.933 216.5,291.5C 215.662,291.842 215.328,292.508 215.5,293.5C 214.833,293.5 214.5,293.833 214.5,294.5C 212.833,295.5 211.5,296.833 210.5,298.5C 209.508,298.328 208.842,298.662 208.5,299.5C 207.209,299.263 206.209,299.596 205.5,300.5C 195.833,300.5 186.167,300.5 176.5,300.5C 175.791,299.596 174.791,299.263 173.5,299.5C 171.229,297.734 169.063,295.734 167,293.5C 166.139,290.269 164.972,287.269 163.5,284.5C 162.22,283.069 160.553,282.402 158.5,282.5C 156.954,281.14 155.12,280.14 153,279.5C 151.699,279.639 150.866,280.305 150.5,281.5C 149.833,281.5 149.5,281.833 149.5,282.5C 148.508,282.328 147.842,282.662 147.5,283.5C 146.508,283.328 145.842,283.662 145.5,284.5C 142.833,284.5 140.167,284.5 137.5,284.5C 136.791,283.596 135.791,283.263 134.5,283.5C 129.025,282.511 123.358,282.178 117.5,282.5C 116.432,281.566 115.099,281.232 113.5,281.5C 112.22,280.069 110.553,279.402 108.5,279.5C 105.669,277.583 102.669,275.917 99.5,274.5C 92.6866,273.509 85.6866,273.175 78.5,273.5C 75.8374,271.889 75.3374,269.889 77,267.5C 81.7488,266.695 86.5821,266.195 91.5,266C 90.6266,264.955 89.6266,264.122 88.5,263.5C 85.1295,258.779 82.1295,253.779 79.5,248.5C 76.2548,247.957 73.2548,246.957 70.5,245.5C 70.5,244.833 70.5,244.167 70.5,243.5C 72.296,242.206 74.296,241.206 76.5,240.5C 76.3764,239.893 76.0431,239.56 75.5,239.5C 75.7373,238.209 75.404,237.209 74.5,236.5C 74.7678,234.901 74.4345,233.568 73.5,232.5C 73.7678,230.901 73.4345,229.568 72.5,228.5C 72.6427,226.738 72.3094,225.071 71.5,223.5C 68.1792,222.67 64.8458,222.003 61.5,221.5C 59.8637,218.268 60.8637,216.101 64.5,215C 62.4234,213.295 60.09,212.128 57.5,211.5C 57.1583,210.662 56.4916,210.328 55.5,210.5C 55.1583,209.662 54.4916,209.328 53.5,209.5C 53.1583,208.662 52.4916,208.328 51.5,208.5C 45.526,204.691 40.6926,199.691 37,193.5C 36.1667,194.333 35.3333,195.167 34.5,196C 28.5092,196.499 22.5092,196.666 16.5,196.5C 16.1667,195.5 15.5,194.833 14.5,194.5C 14.5,193.833 14.5,193.167 14.5,192.5C 15.2891,192.217 15.9558,191.717 16.5,191C 22.8594,190.831 29.1928,190.331 35.5,189.5C 35.3764,188.893 35.0431,188.56 34.5,188.5C 34.5,183.5 34.5,178.5 34.5,173.5C 36.2875,170.591 36.6208,167.591 35.5,164.5C 35.6716,163.508 35.3382,162.842 34.5,162.5C 33.0605,160.412 32.3939,158.079 32.5,155.5C 36.3799,151.375 41.0466,150.375 46.5,152.5C 49.6351,154.239 52.6351,156.239 55.5,158.5C 55.5,159.167 55.8333,159.5 56.5,159.5C 56.9867,160.473 57.4867,161.473 58,162.5C 58.4966,160.19 58.6633,157.857 58.5,155.5C 59.4345,154.432 59.7678,153.099 59.5,151.5C 60.7384,149.786 61.405,147.786 61.5,145.5C 58.1667,145.5 54.8333,145.5 51.5,145.5C 50.3586,143.451 50.3586,141.451 51.5,139.5C 55.1817,139.665 58.8484,139.499 62.5,139C 60.9913,137.076 58.9913,135.909 56.5,135.5C 53.6894,136.08 51.0227,136.746 48.5,137.5C 41.8523,138.139 35.1856,138.473 28.5,138.5C 27.4324,137.566 26.099,137.232 24.5,137.5C 22.3374,135.917 20.0041,134.584 17.5,133.5C 7.64258,125.113 3.30925,114.447 4.5,101.5C 6.03697,98.1 7.8703,94.7667 10,91.5C 15.2883,88.0881 18.1216,83.2547 18.5,77C 17.5879,72.5536 17.2546,68.0536 17.5,63.5C 20.8172,59.9073 24.4839,59.5739 28.5,62.5C 30.8623,65.192 33.1956,67.8587 35.5,70.5C 36.2638,73.0177 37.2638,75.351 38.5,77.5C 38.825,84.1108 38.1584,90.6108 36.5,97C 36.8333,97.5 37.1667,98 37.5,98.5C 41.9801,95.871 45.3134,92.2044 47.5,87.5C 48.9063,87.0269 49.573,86.0269 49.5,84.5C 52.8726,81.8225 56.2059,79.1558 59.5,76.5C 60.6451,74.0467 60.3117,71.7134 58.5,69.5C 58.3404,67.847 57.6737,66.5137 56.5,65.5C 56.5,63.5 55.5,62.5 53.5,62.5C 48.0399,61.2627 42.3732,60.596 36.5,60.5C 34.7857,59.2616 32.7857,58.595 30.5,58.5C 27.1747,56.5033 23.8413,54.5033 20.5,52.5C 16.8051,48.4741 13.1384,44.4741 9.5,40.5C 8.07127,37.3037 6.4046,34.3037 4.5,31.5C 1.70942,22.7517 1.87609,14.0851 5,5.5C 6.33203,3.34004 7.83203,1.34004 9.5,-0.5 Z M 86.5,19.5 C 89.0892,20.4194 91.0892,22.086 92.5,24.5C 89.9108,23.5806 87.9108,21.914 86.5,19.5 Z M 174.5,47.5 C 175.833,48.1667 176.833,49.1667 177.5,50.5C 175.5,50.5 174.5,49.5 174.5,47.5 Z M 53.5,62.5 C 55.5,62.5 56.5,63.5 56.5,65.5C 55.1667,64.8333 54.1667,63.8333 53.5,62.5 Z M 49.5,84.5 C 49.573,86.0269 48.9063,87.0269 47.5,87.5C 47.427,85.9731 48.0937,84.9731 49.5,84.5 Z"/></g>
<g><path style="opacity:0.008" fill="#000000" d="M 17.5,-0.5 C 17.8333,-0.5 18.1667,-0.5 18.5,-0.5C 18.5,-0.166667 18.5,0.166667 18.5,0.5C 18.1667,0.166667 17.8333,-0.166667 17.5,-0.5 Z"/></g>
<g><path style="opacity:0.008" fill="#000000" d="M 18.5,0.5 C 19.8333,1.16667 19.8333,1.16667 18.5,0.5 Z"/></g>
<g><path style="opacity:0.007" fill="#000000" d="M 163.5,7.5 C 164.946,6.38705 166.613,6.22039 168.5,7C 166.866,7.49351 165.199,7.66018 163.5,7.5 Z"/></g>
<g><path style="opacity:0.012" fill="#000000" d="M 53.5,8.5 C 57.9811,7.35159 62.6478,7.18492 67.5,8C 62.8452,8.49915 58.1785,8.66582 53.5,8.5 Z"/></g>
<g><path style="opacity:0.01" fill="#000000" d="M 1.5,8.5 C 2.52502,8.89657 2.69169,9.56323 2,10.5C 1.53566,9.90558 1.36899,9.23891 1.5,8.5 Z"/></g>
<g><path style="opacity:0.008" fill="#000000" d="M 68.5,9.5 C 69.2506,8.42654 70.2506,8.25988 71.5,9C 70.552,9.48278 69.552,9.64945 68.5,9.5 Z"/></g>
<g><path style="opacity:0.01" fill="#000000" d="M 72.5,10.5 C 72.8966,9.47498 73.5632,9.30831 74.5,10C 73.9056,10.4643 73.2389,10.631 72.5,10.5 Z"/></g>
<g><path style="opacity:0.004" fill="#000000" d="M 157.5,9.5 C 158.833,10.1667 158.833,10.1667 157.5,9.5 Z"/></g>
<g><path style="opacity:0.012" fill="#000000" d="M 75.5,10.5 C 76.8333,11.1667 76.8333,11.1667 75.5,10.5 Z"/></g>
<g><path style="opacity:0.011" fill="#000000" d="M 0.5,11.5 C 1.64697,15.6463 1.81364,19.9796 1,24.5C 0.500982,20.1794 0.334316,15.8461 0.5,11.5 Z"/></g>
<g><path style="opacity:0.012" fill="#000000" d="M 77.5,11.5 C 78.8333,12.1667 78.8333,12.1667 77.5,11.5 Z"/></g>
<g><path style="opacity:0.008" fill="#000000" d="M 39.5,13.5 C 39.8966,12.475 40.5632,12.3083 41.5,13C 40.9056,13.4643 40.2389,13.631 39.5,13.5 Z"/></g>
<g><path style="opacity:1" fill="#f07707" d="M 11.5,9.5 C 12.2389,9.36899 12.9056,9.53566 13.5,10C 24.1351,25.0157 37.4685,27.6823 53.5,18C 68.0568,16.1085 79.7235,21.1085 88.5,33C 94.199,37.129 100.532,38.4623 107.5,37C 115.267,34.0553 123.267,32.722 131.5,33C 134.952,34.2257 138.285,35.7257 141.5,37.5C 142.328,42.1315 142.828,46.7982 143,51.5C 144.356,52.3802 145.856,52.7135 147.5,52.5C 147.334,48.1539 147.501,43.8206 148,39.5C 148.792,37.4127 149.959,35.5793 151.5,34C 159.202,31.6401 163.035,26.4735 163,18.5C 166.084,15.8581 167.917,16.6914 168.5,21C 166.868,26.229 165.035,31.3956 163,36.5C 163.361,52.1949 171.361,60.8615 187,62.5C 195.022,61.1615 202.855,58.9948 210.5,56C 230.158,51.6609 243.825,58.6609 251.5,77C 245.917,82.7492 243.75,89.5825 245,97.5C 246.356,98.3802 247.856,98.7135 249.5,98.5C 248.895,92.7672 250.062,87.4339 253,82.5C 257.645,78.3447 262.645,74.6781 268,71.5C 268.798,68.4572 269.965,65.6239 271.5,63C 272.996,62.4926 274.163,62.9926 275,64.5C 275.485,70.2251 274.151,75.5585 271,80.5C 268.255,95.6153 270.921,109.615 279,122.5C 288.629,134.423 295.629,147.756 300,162.5C 302.571,180.335 298.905,196.669 289,211.5C 287.667,212.833 286.333,214.167 285,215.5C 285.941,206.183 285.607,196.849 284,187.5C 280.934,182.548 276.434,180.048 270.5,180C 267.779,175.391 265.446,170.558 263.5,165.5C 264.73,162.709 266.23,160.042 268,157.5C 269.402,152.025 268.069,147.358 264,143.5C 258.429,137.258 252.262,131.758 245.5,127C 242.5,126.333 239.5,126.333 236.5,127C 234.182,128.993 231.516,130.159 228.5,130.5C 225.486,102.986 210.153,88.8189 182.5,88C 174.151,85.3252 166.484,81.3252 159.5,76C 153.198,70.6991 147.198,65.0325 141.5,59C 132.9,51.534 122.9,47.7007 111.5,47.5C 103.612,49.1821 95.6124,49.6821 87.5,49C 84.9906,47.5787 82.6572,45.9121 80.5,44C 78.1122,43.1349 76.6122,43.9683 76,46.5C 74.3383,53.1694 76.1717,58.6694 81.5,63C 85.8878,65.8606 90.5545,68.1939 95.5,70C 103.3,71.8671 110.967,74.2005 118.5,77C 130.494,84.3493 132.494,93.6827 124.5,105C 120.445,107.34 116.111,108.007 111.5,107C 100.894,102.229 89.8945,101.229 78.5,104C 77.4258,104.739 76.7591,105.739 76.5,107C 78.1122,109.616 80.1122,111.95 82.5,114C 80.8333,114.333 79.1667,114.667 77.5,115C 76.4829,116.049 76.3162,117.216 77,118.5C 80.4106,119.293 83.9106,119.793 87.5,120C 93.9736,129.171 95.1402,139.004 91,149.5C 87.802,163.03 90.9686,174.697 100.5,184.5C 99.4688,185.7 98.6355,187.034 98,188.5C 97.1254,199.217 97.4587,209.884 99,220.5C 101.765,225.246 105.932,227.413 111.5,227C 114.977,231.416 117.311,236.416 118.5,242C 117.459,244.723 115.959,247.223 114,249.5C 113.333,252.167 113.333,254.833 114,257.5C 118.089,263.593 122.922,269.093 128.5,274C 123.96,274.947 119.626,274.447 115.5,272.5C 117.475,271.251 117.809,269.751 116.5,268C 112.167,267.667 107.833,267.333 103.5,267C 96.6326,261.391 91.6326,254.557 88.5,246.5C 92.8333,246.5 97.1667,246.5 101.5,246.5C 101.714,244.856 101.38,243.356 100.5,242C 95.2497,241.807 90.083,241.307 85,240.5C 82.8647,234.57 81.0313,228.57 79.5,222.5C 83.1224,221.675 86.789,221.175 90.5,221C 91.5171,219.951 91.6838,218.784 91,217.5C 86.2512,216.695 81.4179,216.195 76.5,216C 74.8745,213.372 72.8745,211.039 70.5,209C 64.5,205.667 58.5,202.333 52.5,199C 43.6307,193.088 40.4641,184.921 43,174.5C 43.7521,170.148 44.5855,165.815 45.5,161.5C 47.8079,162.641 49.6413,164.308 51,166.5C 53.06,171.62 55.3933,176.62 58,181.5C 58.9025,182.701 60.0692,183.535 61.5,184C 67.2213,184.263 72.888,183.763 78.5,182.5C 82.4391,182.112 85.9391,183.112 89,185.5C 92.1366,184.055 92.3033,182.222 89.5,180C 83.0581,177.186 76.3914,176.686 69.5,178.5C 69.2437,176.063 68.5771,173.729 67.5,171.5C 73.4725,170.67 79.4725,170.17 85.5,170C 86.8333,168.667 86.8333,167.333 85.5,166C 79.1754,165.5 72.8421,165.334 66.5,165.5C 66.3865,158.618 67.5531,151.952 70,145.5C 75.4066,144.527 80.9066,144.193 86.5,144.5C 86.7135,142.856 86.3802,141.356 85.5,140C 80.5111,139.501 75.5111,139.334 70.5,139.5C 69.9895,133.812 66.9895,129.979 61.5,128C 57.5,127.333 53.5,127.333 49.5,128C 33.6629,134.502 21.8296,130.336 14,115.5C 12.6374,111.239 12.3041,106.905 13,102.5C 15.8941,96.9384 19.5608,91.9384 24,87.5C 25.8693,82.6825 26.8693,77.6825 27,72.5C 29.5692,75.8765 30.7359,79.7099 30.5,84C 28.9733,89.0505 28.4733,94.2171 29,99.5C 32.1732,107.073 37.3398,108.573 44.5,104C 49.5985,97.8119 54.9319,91.8119 60.5,86C 69.5033,80.9239 79.0033,80.0906 89,83.5C 91.1875,82.9407 91.8542,81.6073 91,79.5C 84.0755,77.1175 76.9088,75.9509 69.5,76C 68.4483,68.1695 65.115,61.5028 59.5,56C 52.526,52.9957 45.1927,51.6623 37.5,52C 18.208,44.2371 9.5413,30.0704 11.5,9.5 Z M 86.5,19.5 C 89.0892,20.4194 91.0892,22.086 92.5,24.5C 89.9108,23.5806 87.9108,21.914 86.5,19.5 Z M 49.5,84.5 C 49.573,86.0269 48.9063,87.0269 47.5,87.5C 47.427,85.9731 48.0937,84.9731 49.5,84.5 Z"/></g>
<g><path style="opacity:0.007" fill="#000000" d="M 30.5,14.5 C 31.2506,13.4265 32.2506,13.2599 33.5,14C 32.552,14.4828 31.552,14.6495 30.5,14.5 Z"/></g>
<g><path style="opacity:0.01" fill="#000000" d="M 34.5,14.5 C 35.6009,13.4017 36.9343,13.235 38.5,14C 37.2068,14.49 35.8734,14.6567 34.5,14.5 Z"/></g>
<g><path style="opacity:0.012" fill="#000000" d="M 80.5,13.5 C 81.8333,14.1667 81.8333,14.1667 80.5,13.5 Z"/></g>
<g><path style="opacity:0.008" fill="#000000" d="M 82.5,14.5 C 83.8333,15.1667 83.8333,15.1667 82.5,14.5 Z"/></g>
<g><path style="opacity:0.008" fill="#000000" d="M 176.5,16.5 C 176.369,15.7611 176.536,15.0944 177,14.5C 177.692,15.4368 177.525,16.1034 176.5,16.5 Z"/></g>
<g><path style="opacity:0.008" fill="#000000" d="M 177.5,17.5 C 178.629,19.6282 178.796,21.9615 178,24.5C 177.503,22.1902 177.337,19.8568 177.5,17.5 Z"/></g>
<g><path style="opacity:0.007" fill="#000000" d="M 152.5,22.5 C 152.351,21.448 152.517,20.448 153,19.5C 153.74,20.7494 153.573,21.7494 152.5,22.5 Z"/></g>
<g><path style="opacity:0.01" fill="#000000" d="M 122.5,23.5 C 124.966,22.3659 127.633,22.1993 130.5,23C 127.854,23.4974 125.187,23.6641 122.5,23.5 Z"/></g>
<g><path style="opacity:0.012" fill="#000000" d="M 152.5,22.5 C 151.833,23.1667 151.833,23.1667 152.5,22.5 Z"/></g>
<g><path style="opacity:0.009" fill="#000000" d="M 121.5,24.5 C 120.448,24.6495 119.448,24.4828 118.5,24C 119.749,23.2599 120.749,23.4265 121.5,24.5 Z"/></g>
<g><path style="opacity:0.009" fill="#000000" d="M 132.5,24.5 C 133.251,23.4265 134.251,23.2599 135.5,24C 134.552,24.4828 133.552,24.6495 132.5,24.5 Z"/></g>
<g><path style="opacity:0.009" fill="#000000" d="M 117.5,25.5 C 116.448,25.6495 115.448,25.4828 114.5,25C 115.749,24.2599 116.749,24.4265 117.5,25.5 Z"/></g>
<g><path style="opacity:0.01" fill="#000000" d="M 136.5,25.5 C 136.897,24.475 137.563,24.3083 138.5,25C 137.906,25.4643 137.239,25.631 136.5,25.5 Z"/></g>
<g><path style="opacity:0.009" fill="#000000" d="M 1.5,25.5 C 2.57346,26.2506 2.74012,27.2506 2,28.5C 1.51722,27.552 1.35055,26.552 1.5,25.5 Z"/></g>
<g><path style="opacity:0.016" fill="#000000" d="M 94.5,25.5 C 95.8333,26.1667 95.8333,26.1667 94.5,25.5 Z"/></g>
<g><path style="opacity:0.009" fill="#000000" d="M 110.5,26.5 C 111.251,25.4265 112.251,25.2599 113.5,26C 112.552,26.4828 111.552,26.6495 110.5,26.5 Z"/></g>
<g><path style="opacity:0.012" fill="#000000" d="M 139.5,25.5 C 140.833,26.1667 140.833,26.1667 139.5,25.5 Z"/></g>
<g><path style="opacity:0.009" fill="#000000" d="M 176.5,25.5 C 177.833,26.5 177.833,27.5 176.5,28.5C 176.5,27.5 176.5,26.5 176.5,25.5 Z"/></g>
<g><path style="opacity:0.009" fill="#000000" d="M 96.5,27.5 C 97.2506,26.4265 98.2506,26.2599 99.5,27C 98.552,27.4828 97.552,27.6495 96.5,27.5 Z"/></g>
<g><path style="opacity:0.009" fill="#000000" d="M 109.5,27.5 C 107.801,27.6602 106.134,27.4935 104.5,27C 106.387,26.2204 108.054,26.3871 109.5,27.5 Z"/></g>
<g><path style="opacity:0.008" fill="#000000" d="M 175.5,28.5 C 175.833,28.5 176.167,28.5 176.5,28.5C 176.167,31.1667 175.833,31.1667 175.5,28.5 Z"/></g>
<g><path style="opacity:0.01" fill="#000000" d="M 3.5,31.5 C 2.47498,31.1034 2.30831,30.4368 3,29.5C 3.46434,30.0944 3.63101,30.7611 3.5,31.5 Z"/></g>
<g><path style="opacity:0.008" fill="#000000" d="M 3.5,31.5 C 3.83333,31.5 4.16667,31.5 4.5,31.5C 4.16667,34.1667 3.83333,34.1667 3.5,31.5 Z"/></g>
<g><path style="opacity:0.01" fill="#000000" d="M 174.5,31.5 C 175.833,32.1667 175.833,32.8333 174.5,33.5C 174.5,32.8333 174.5,32.1667 174.5,31.5 Z"/></g>
<g><path style="opacity:0.008" fill="#000000" d="M 173.5,33.5 C 173.833,33.5 174.167,33.5 174.5,33.5C 174.167,36.1667 173.833,36.1667 173.5,33.5 Z"/></g>
<g><path style="opacity:0.012" fill="#000000" d="M 4.5,34.5 C 5.83333,35.1667 5.83333,35.1667 4.5,34.5 Z"/></g>
<g><path style="opacity:0.008" fill="#000000" d="M 5.5,36.5 C 6.83333,37.1667 6.83333,37.1667 5.5,36.5 Z"/></g>
<g><path style="opacity:0.009" fill="#000000" d="M 172.5,36.5 C 173.573,37.2506 173.74,38.2506 173,39.5C 172.517,38.552 172.351,37.552 172.5,36.5 Z"/></g>
<g><path style="opacity:0.012" fill="#000000" d="M 9.5,40.5 C 8.83333,41.1667 8.83333,41.1667 9.5,40.5 Z"/></g>
<g><path style="opacity:0.008" fill="#000000" d="M 9.5,42.5 C 10.8333,43.1667 10.8333,43.1667 9.5,42.5 Z"/></g>
<g><path style="opacity:0.004" fill="#000000" d="M 219.5,45.5 C 221.288,44.3775 223.288,44.2109 225.5,45C 223.527,45.4955 221.527,45.6621 219.5,45.5 Z"/></g>
<g><path style="opacity:0.01" fill="#000000" d="M 211.5,46.5 C 212.601,45.4017 213.934,45.235 215.5,46C 214.207,46.49 212.873,46.6567 211.5,46.5 Z"/></g>
<g><path style="opacity:0.01" fill="#000000" d="M 228.5,46.5 C 229.601,45.4017 230.934,45.235 232.5,46C 231.207,46.49 229.873,46.6567 228.5,46.5 Z"/></g>
<g><path style="opacity:0.009" fill="#000000" d="M 206.5,47.5 C 207.251,46.4265 208.251,46.2599 209.5,47C 208.552,47.4828 207.552,47.6495 206.5,47.5 Z"/></g>
<g><path style="opacity:0.01" fill="#000000" d="M 203.5,48.5 C 203.897,47.475 204.563,47.3083 205.5,48C 204.906,48.4643 204.239,48.631 203.5,48.5 Z"/></g>
<g><path style="opacity:0.008" fill="#000000" d="M 235.5,48.5 C 235.897,47.475 236.563,47.3083 237.5,48C 236.906,48.4643 236.239,48.631 235.5,48.5 Z"/></g>
<g><path style="opacity:0.01" fill="#000000" d="M 202.5,49.5 C 201.761,49.631 201.094,49.4643 200.5,49C 201.437,48.3083 202.103,48.475 202.5,49.5 Z"/></g>
<g><path style="opacity:0.01" fill="#000000" d="M 199.5,50.5 C 198.761,50.631 198.094,50.4643 197.5,50C 198.437,49.3083 199.103,49.475 199.5,50.5 Z"/></g>
<g><path style="opacity:0.012" fill="#000000" d="M 240.5,49.5 C 241.833,50.1667 241.833,50.1667 240.5,49.5 Z"/></g>
<g><path style="opacity:0.008" fill="#000000" d="M 194.5,51.5 C 194.897,50.475 195.563,50.3083 196.5,51C 195.906,51.4643 195.239,51.631 194.5,51.5 Z"/></g>
<g><path style="opacity:0.008" fill="#000000" d="M 242.5,50.5 C 243.833,51.1667 243.833,51.1667 242.5,50.5 Z"/></g>
<g><path style="opacity:0.012" fill="#000000" d="M 180.5,52.5 C 180.897,51.475 181.563,51.3083 182.5,52C 181.906,52.4643 181.239,52.631 180.5,52.5 Z"/></g>
<g><path style="opacity:0.007" fill="#000000" d="M 194.5,51.5 C 194.5,51.8333 194.5,52.1667 194.5,52.5C 190.5,52.1667 190.5,51.8333 194.5,51.5 Z"/></g>
<g><path style="opacity:0.016" fill="#000000" d="M 20.5,52.5 C 20.5,52.8333 20.5,53.1667 20.5,53.5C 19.8299,53.0187 19.8299,52.6853 20.5,52.5 Z"/></g>
<g><path style="opacity:0.011" fill="#000000" d="M 184.5,53.5 C 185.946,52.3871 187.613,52.2204 189.5,53C 187.866,53.4935 186.199,53.6602 184.5,53.5 Z"/></g>
<g><path style="opacity:0.008" fill="#000000" d="M 269.5,53.5 C 271.288,52.3775 273.288,52.2109 275.5,53C 273.527,53.4955 271.527,53.6621 269.5,53.5 Z"/></g>
<g><path style="opacity:0.008" fill="#000000" d="M 20.5,53.5 C 21.8333,54.1667 21.8333,54.1667 20.5,53.5 Z"/></g>
<g><path style="opacity:0.012" fill="#000000" d="M 276.5,53.5 C 277.833,54.1667 277.833,54.1667 276.5,53.5 Z"/></g>
<g><path style="opacity:0.008" fill="#000000" d="M 278.5,54.5 C 279.833,55.1667 279.833,55.1667 278.5,54.5 Z"/></g>
<g><path style="opacity:0.008" fill="#000000" d="M 30.5,58.5 C 30.1034,59.525 29.4368,59.6917 28.5,59C 29.0944,58.5357 29.7611,58.369 30.5,58.5 Z"/></g>
<g><path style="opacity:0.012" fill="#000000" d="M 31.5,59.5 C 32.8333,60.1667 32.8333,60.1667 31.5,59.5 Z"/></g>
<g><path style="opacity:0.008" fill="#000000" d="M 36.5,60.5 C 35.7494,61.5735 34.7494,61.7401 33.5,61C 34.448,60.5172 35.448,60.3505 36.5,60.5 Z"/></g>
<g><path style="opacity:0.008" fill="#000000" d="M 260.5,60.5 C 261.525,60.8966 261.692,61.5632 261,62.5C 260.536,61.9056 260.369,61.2389 260.5,60.5 Z"/></g>
<g><path style="opacity:0.008" fill="#000000" d="M 283.5,62.5 C 283.369,61.7611 283.536,61.0944 284,60.5C 284.692,61.4368 284.525,62.1034 283.5,62.5 Z"/></g>
<g><path style="opacity:0.006" fill="#000000" d="M 28.5,62.5 C 29.1667,61.1667 29.8333,61.1667 30.5,62.5C 29.8333,62.5 29.1667,62.5 28.5,62.5 Z"/></g>
<g><path style="opacity:0.009" fill="#000000" d="M 37.5,62.5 C 39.2884,61.3775 41.2884,61.2109 43.5,62C 41.5273,62.4955 39.5273,62.6621 37.5,62.5 Z"/></g>
<g><path style="opacity:0.012" fill="#000000" d="M 253.5,61.5 C 254.833,62.1667 254.833,62.1667 253.5,61.5 Z"/></g>
<g><path style="opacity:0.012" fill="#000000" d="M 17.5,63.5 C 16.8333,62.1667 16.8333,62.1667 17.5,63.5 Z"/></g>
<g><path style="opacity:0.004" fill="#000000" d="M 30.5,62.5 C 31.1667,62.5 31.5,62.8333 31.5,63.5C 31.1667,63.1667 30.8333,62.8333 30.5,62.5 Z"/></g>
<g><path style="opacity:0.01" fill="#000000" d="M 16.5,63.5 C 16.6646,66.5184 16.498,69.5184 16,72.5C 15.1955,69.3035 15.3622,66.3035 16.5,63.5 Z"/></g>
<g><path style="opacity:0.004" fill="#000000" d="M 31.5,63.5 C 32.1667,63.5 32.5,63.8333 32.5,64.5C 32.1667,64.1667 31.8333,63.8333 31.5,63.5 Z"/></g>
<g><path style="opacity:0.006" fill="#000000" d="M 284.5,63.5 C 285.634,65.9664 285.801,68.633 285,71.5C 284.503,68.854 284.336,66.1873 284.5,63.5 Z"/></g>
<g><path style="opacity:0.004" fill="#000000" d="M 32.5,64.5 C 33.8333,65.1667 33.8333,65.1667 32.5,64.5 Z"/></g>
<g><path style="opacity:0.012" fill="#000000" d="M 260.5,66.5 C 259.475,66.1034 259.308,65.4368 260,64.5C 260.464,65.0944 260.631,65.7611 260.5,66.5 Z"/></g>
<g><path style="opacity:0.006" fill="#000000" d="M 36.5,70.5 C 36.1667,70.5 35.8333,70.5 35.5,70.5C 35.8333,67.8333 36.1667,67.8333 36.5,70.5 Z"/></g>
<g><path style="opacity:0.008" fill="#000000" d="M 58.5,69.5 C 58.6495,70.552 58.4828,71.552 58,72.5C 57.2599,71.2506 57.4265,70.2506 58.5,69.5 Z"/></g>
<g><path style="opacity:0.012" fill="#000000" d="M 36.5,70.5 C 37.8333,71.1667 37.8333,71.1667 36.5,70.5 Z"/></g>
<g><path style="opacity:0.013" fill="#000000" d="M 59.5,76.5 C 58.4265,75.7494 58.2599,74.7494 59,73.5C 59.4828,74.448 59.6495,75.448 59.5,76.5 Z"/></g>
<g><path style="opacity:0.012" fill="#000000" d="M 283.5,73.5 C 284.525,73.8966 284.692,74.5632 284,75.5C 283.536,74.9056 283.369,74.2389 283.5,73.5 Z"/></g>
<g><path style="opacity:0.008" fill="#000000" d="M 38.5,77.5 C 38.3505,76.448 38.5172,75.448 39,74.5C 39.7401,75.7494 39.5735,76.7494 38.5,77.5 Z"/></g>
<g><path style="opacity:0.012" fill="#000000" d="M 56.5,76.5 C 57.8333,77.1667 57.8333,77.1667 56.5,76.5 Z"/></g>
<g><path style="opacity:0.008" fill="#000000" d="M 282.5,76.5 C 283.833,77.1667 283.833,77.8333 282.5,78.5C 282.5,77.8333 282.5,77.1667 282.5,76.5 Z"/></g>
<g><path style="opacity:0.012" fill="#000000" d="M 39.5,78.5 C 40.6433,81.9758 40.8099,85.6425 40,89.5C 39.5014,85.8484 39.3347,82.1817 39.5,78.5 Z"/></g>
<g><path style="opacity:0.008" fill="#000000" d="M 281.5,78.5 C 281.833,78.5 282.167,78.5 282.5,78.5C 282.672,79.4916 282.338,80.1583 281.5,80.5C 281.5,79.8333 281.5,79.1667 281.5,78.5 Z"/></g>
<g><path style="opacity:0.009" fill="#000000" d="M 280.5,80.5 C 280.833,80.5 281.167,80.5 281.5,80.5C 281.167,84.5 280.833,84.5 280.5,80.5 Z"/></g>
<g><path style="opacity:0.011" fill="#000000" d="M 279.5,85.5 C 280.651,90.6503 280.817,95.9836 280,101.5C 279.501,96.1771 279.334,90.8437 279.5,85.5 Z"/></g>
<g><path style="opacity:0.009" fill="#000000" d="M 38.5,91.5 C 39.5735,92.2506 39.7401,93.2506 39,94.5C 38.5172,93.552 38.3505,92.552 38.5,91.5 Z"/></g>
<g><path style="opacity:0.012" fill="#000000" d="M 4.5,101.5 C 3.47498,101.103 3.30831,100.437 4,99.5C 4.46434,100.094 4.63101,100.761 4.5,101.5 Z"/></g>
<g><path style="opacity:0.011" fill="#000000" d="M 2.5,102.5 C 3.64327,105.976 3.80993,109.642 3,113.5C 2.50137,109.848 2.3347,106.182 2.5,102.5 Z"/></g>
<g><path style="opacity:0.009" fill="#000000" d="M 280.5,105.5 C 280.351,104.448 280.517,103.448 281,102.5C 281.74,103.749 281.573,104.749 280.5,105.5 Z"/></g>
<g><path style="opacity:1" fill="#efb43d" d="M 80.5,51.5 C 82.5932,52.0447 84.5932,52.878 86.5,54C 88.6667,54.1667 90.8333,54.3333 93,54.5C 102.103,52.8165 111.269,52.3165 120.5,53C 124.286,54.3926 127.952,56.0593 131.5,58C 140.464,65.295 149.13,72.9617 157.5,81C 169.611,90.1139 183.278,94.7806 198.5,95C 213.437,101.404 221.437,112.57 222.5,128.5C 215.81,127.308 212.644,123.308 213,116.5C 211.12,112.529 207.953,110.363 203.5,110C 193.758,109.08 184.092,109.413 174.5,111C 169.754,113.765 167.587,117.932 168,123.5C 162.926,127.79 157.092,129.957 150.5,130C 146.36,126.758 141.694,125.758 136.5,127C 127.288,133.212 119.788,141.045 114,150.5C 113.333,152.5 113.333,154.5 114,156.5C 115.708,159.381 117.208,162.381 118.5,165.5C 116.824,170.717 114.491,175.551 111.5,180C 103.508,181.051 98.3418,177.551 96,169.5C 95.3333,163.167 95.3333,156.833 96,150.5C 99.9907,139.889 99.1574,129.723 93.5,120C 101.167,119.667 108.833,119.333 116.5,119C 117.833,117.667 117.833,116.333 116.5,115C 107.5,114.667 98.5,114.333 89.5,114C 87.6487,112.316 85.982,110.483 84.5,108.5C 93.66,106.378 102.327,107.545 110.5,112C 127.594,113.573 135.428,105.739 134,88.5C 130.921,80.4195 125.421,74.5862 117.5,71C 107.216,68.4608 97.2158,65.1275 87.5,61C 83.5856,59.0069 81.2523,55.8403 80.5,51.5 Z"/></g>
<g><path style="opacity:1" fill="#070501" d="M 133.5,114.5 C 143.167,114.5 152.833,114.5 162.5,114.5C 162.714,116.144 162.38,117.644 161.5,119C 152.167,119.667 142.833,119.667 133.5,119C 132.272,117.51 132.272,116.01 133.5,114.5 Z"/></g>
<g><path style="opacity:0.012" fill="#000000" d="M 288.5,119.5 C 289.833,120.167 289.833,120.167 288.5,119.5 Z"/></g>
<g><path style="opacity:0.012" fill="#000000" d="M 290.5,122.5 C 289.833,121.167 289.833,121.167 290.5,122.5 Z"/></g>
<g><path style="opacity:0.012" fill="#000000" d="M 290.5,122.5 C 291.833,123.167 291.833,123.167 290.5,122.5 Z"/></g>
<g><path style="opacity:0.012" fill="#000000" d="M 292.5,125.5 C 293.833,126.167 293.833,126.167 292.5,125.5 Z"/></g>
<g><path style="opacity:0.012" fill="#000000" d="M 294.5,128.5 C 293.833,127.167 293.833,127.167 294.5,128.5 Z"/></g>
<g><path style="opacity:0.008" fill="#000000" d="M 294.5,128.5 C 295.833,129.167 295.833,129.167 294.5,128.5 Z"/></g>
<g><path style="opacity:0.012" fill="#000000" d="M 17.5,133.5 C 17.5,133.833 17.5,134.167 17.5,134.5C 16.8299,134.019 16.8299,133.685 17.5,133.5 Z"/></g>
<g><path style="opacity:0.008" fill="#000000" d="M 17.5,134.5 C 18.8333,135.167 18.8333,135.167 17.5,134.5 Z"/></g>
<g><path style="opacity:0.008" fill="#000000" d="M 299.5,136.5 C 299.167,136.5 298.833,136.5 298.5,136.5C 298.833,133.833 299.167,133.833 299.5,136.5 Z"/></g>
<g><path style="opacity:0.008" fill="#000000" d="M 299.5,136.5 C 300.833,137.167 300.833,137.167 299.5,136.5 Z"/></g>
<g><path style="opacity:0.008" fill="#000000" d="M 24.5,137.5 C 24.1034,138.525 23.4368,138.692 22.5,138C 23.0944,137.536 23.7611,137.369 24.5,137.5 Z"/></g>
<g><path style="opacity:0.014" fill="#000000" d="M 48.5,137.5 C 52.5138,137.334 56.5138,137.501 60.5,138C 57.3054,138.181 54.3054,138.681 51.5,139.5C 50.2905,139.068 49.2905,138.401 48.5,137.5 Z"/></g>
<g><path style="opacity:0.009" fill="#000000" d="M 28.5,138.5 C 27.7494,139.573 26.7494,139.74 25.5,139C 26.448,138.517 27.448,138.351 28.5,138.5 Z"/></g>
<g><path style="opacity:0.009" fill="#000000" d="M 42.5,139.5 C 43.9464,138.387 45.6131,138.22 47.5,139C 45.8659,139.494 44.1992,139.66 42.5,139.5 Z"/></g>
<g><path style="opacity:0.012" fill="#000000" d="M 300.5,138.5 C 301.833,139.167 301.833,139.167 300.5,138.5 Z"/></g>
<g><path style="opacity:0.009" fill="#000000" d="M 29.5,140.5 C 32.9758,139.357 36.6425,139.19 40.5,140C 36.8484,140.499 33.1817,140.665 29.5,140.5 Z"/></g>
<g><path style="opacity:0.009" fill="#000000" d="M 48.5,140.5 C 49.5735,141.251 49.7401,142.251 49,143.5C 48.5172,142.552 48.3505,141.552 48.5,140.5 Z"/></g>
<g><path style="opacity:1" fill="#181207" d="M 103.5,139.5 C 107.514,139.334 111.514,139.501 115.5,140C 117.394,141.079 117.727,142.413 116.5,144C 111.845,144.499 107.179,144.666 102.5,144.5C 102.366,142.708 102.699,141.042 103.5,139.5 Z"/></g>
<g><path style="opacity:0.012" fill="#000000" d="M 301.5,140.5 C 302.833,141.167 302.833,141.167 301.5,140.5 Z"/></g>
<g><path style="opacity:0.012" fill="#000000" d="M 302.5,142.5 C 303.833,143.167 303.833,143.167 302.5,142.5 Z"/></g>
<g><path style="opacity:0.004" fill="#000000" d="M 50.5,145.5 C 49.8333,144.167 49.8333,144.167 50.5,145.5 Z"/></g>
<g><path style="opacity:0.012" fill="#000000" d="M 303.5,144.5 C 304.833,145.167 304.833,145.167 303.5,144.5 Z"/></g>
<g><path style="opacity:0.004" fill="#000000" d="M 50.5,145.5 C 50.8333,145.5 51.1667,145.5 51.5,145.5C 51.3147,146.17 50.9813,146.17 50.5,145.5 Z"/></g>
<g><path style="opacity:0.017" fill="#000000" d="M 52.5,147.5 C 54.9664,146.366 57.633,146.199 60.5,147C 57.854,147.497 55.1873,147.664 52.5,147.5 Z"/></g>
<g><path style="opacity:0.01" fill="#000000" d="M 305.5,148.5 C 305.167,148.5 304.833,148.5 304.5,148.5C 304.833,145.833 305.167,145.833 305.5,148.5 Z"/></g>
<g><path style="opacity:0.008" fill="#000000" d="M 59.5,151.5 C 58.4265,150.749 58.2599,149.749 59,148.5C 59.4828,149.448 59.6495,150.448 59.5,151.5 Z"/></g>
<g><path style="opacity:0.008" fill="#000000" d="M 305.5,148.5 C 306.525,148.897 306.692,149.563 306,150.5C 305.536,149.906 305.369,149.239 305.5,148.5 Z"/></g>
<g><path style="opacity:0.01" fill="#000000" d="M 41.5,151.5 C 42.6009,150.402 43.9343,150.235 45.5,151C 44.2068,151.49 42.8734,151.657 41.5,151.5 Z"/></g>
<g><path style="opacity:0.01" fill="#000000" d="M 46.5,152.5 C 46.8966,151.475 47.5632,151.308 48.5,152C 47.9056,152.464 47.2389,152.631 46.5,152.5 Z"/></g>
<g><path style="opacity:0.01" fill="#000000" d="M 306.5,151.5 C 307.525,151.897 307.692,152.563 307,153.5C 306.536,152.906 306.369,152.239 306.5,151.5 Z"/></g>
<g><path style="opacity:0.012" fill="#000000" d="M 49.5,152.5 C 50.8333,153.167 50.8333,153.167 49.5,152.5 Z"/></g>
<g><path style="opacity:0.009" fill="#000000" d="M 58.5,155.5 C 57.4265,154.749 57.2599,153.749 58,152.5C 58.4828,153.448 58.6495,154.448 58.5,155.5 Z"/></g>
<g><path style="opacity:0.008" fill="#000000" d="M 51.5,153.5 C 52.8333,154.167 52.8333,154.167 51.5,153.5 Z"/></g>
<g><path style="opacity:0.012" fill="#000000" d="M 32.5,155.5 C 31.8333,154.167 31.8333,154.167 32.5,155.5 Z"/></g>
<g><path style="opacity:0.009" fill="#000000" d="M 307.5,157.5 C 307.351,156.448 307.517,155.448 308,154.5C 308.74,155.749 308.573,156.749 307.5,157.5 Z"/></g>
<g><path style="opacity:0.005" fill="#000000" d="M 30.5,156.5 C 31.5735,157.251 31.7401,158.251 31,159.5C 30.5172,158.552 30.3505,157.552 30.5,156.5 Z"/></g>
<g><path style="opacity:0.013" fill="#000000" d="M 56.5,159.5 C 55.8333,159.5 55.5,159.167 55.5,158.5C 55.7828,157.711 56.2828,157.044 57,156.5C 57.7401,157.749 57.5735,158.749 56.5,159.5 Z"/></g>
<g><path style="opacity:0.009" fill="#000000" d="M 309.5,158.5 C 309.5,159.5 309.5,160.5 309.5,161.5C 308.167,160.5 308.167,159.5 309.5,158.5 Z"/></g>
<g><path style="opacity:0.004" fill="#000000" d="M 29.5,163.5 C 23.8236,163.666 18.1569,163.499 12.5,163C 18.3487,162.182 24.0154,162.348 29.5,163.5 Z"/></g>
<g><path style="opacity:0.02" fill="#000000" d="M 34.5,162.5 C 33.8333,163.167 33.8333,163.167 34.5,162.5 Z"/></g>
<g><path style="opacity:0.008" fill="#000000" d="M 29.5,163.5 C 30.8333,164.167 30.8333,164.167 29.5,163.5 Z"/></g>
<g><path style="opacity:0.709" fill="#000000" d="M 29.5,164.5 C 30.9418,165.82 31.6085,167.486 31.5,169.5C 30.8333,169.5 30.5,169.833 30.5,170.5C 23.8333,171.833 17.1667,171.833 10.5,170.5C 8.83621,168.321 9.16954,166.488 11.5,165C 17.4908,164.501 23.4908,164.334 29.5,164.5 Z"/></g>
<g><path style="opacity:0.012" fill="#000000" d="M 35.5,164.5 C 35.6567,165.873 35.49,167.207 35,168.5C 34.235,166.934 34.4017,165.601 35.5,164.5 Z"/></g>
<g><path style="opacity:1" fill="#070501" d="M 97.5,165.5 C 102.167,165.5 106.833,165.5 111.5,165.5C 111.714,167.144 111.38,168.644 110.5,170C 106.5,170.667 102.5,170.667 98.5,170C 97.6198,168.644 97.2865,167.144 97.5,165.5 Z"/></g>
<g><path style="opacity:0.005" fill="#000000" d="M 33.5,169.5 C 33.1667,169.5 32.8333,169.5 32.5,169.5C 32.8333,165.5 33.1667,165.5 33.5,169.5 Z"/></g>
<g><path style="opacity:0.004" fill="#000000" d="M 7.5,167.5 C 8.83333,168.167 8.83333,168.167 7.5,167.5 Z"/></g>
<g><path style="opacity:0.004" fill="#000000" d="M 9.5,170.5 C 8.83333,169.167 8.83333,169.167 9.5,170.5 Z"/></g>
<g><path style="opacity:0.008" fill="#000000" d="M 31.5,169.5 C 31.8333,169.5 32.1667,169.5 32.5,169.5C 32.3147,170.17 31.9813,170.17 31.5,169.5 Z"/></g>
<g><path style="opacity:0.009" fill="#000000" d="M 33.5,169.5 C 34.4345,170.568 34.7678,171.901 34.5,173.5C 33.5655,172.432 33.2322,171.099 33.5,169.5 Z"/></g>
<g><path style="opacity:0.004" fill="#000000" d="M 9.5,170.5 C 9.83333,170.5 10.1667,170.5 10.5,170.5C 10.5,170.833 10.5,171.167 10.5,171.5C 10.1667,171.167 9.83333,170.833 9.5,170.5 Z"/></g>
<g><path style="opacity:0.004" fill="#000000" d="M 30.5,170.5 C 30.8333,170.5 31.1667,170.5 31.5,170.5C 31.3147,171.17 30.9813,171.17 30.5,170.5 Z"/></g>
<g><path style="opacity:0.004" fill="#000000" d="M 10.5,171.5 C 11.8333,172.167 11.8333,172.167 10.5,171.5 Z"/></g>
<g><path style="opacity:0.008" fill="#000000" d="M 30.5,171.5 C 29.8333,172.167 29.8333,172.167 30.5,171.5 Z"/></g>
<g><path style="opacity:0.009" fill="#000000" d="M 32.5,174.5 C 33.6225,176.288 33.7891,178.288 33,180.5C 32.5045,178.527 32.3379,176.527 32.5,174.5 Z"/></g>
<g><path style="opacity:0.009" fill="#000000" d="M 34.5,188.5 C 12.86,189.26 12.1934,189.26 32.5,188.5C 32.3398,186.801 32.5065,185.134 33,183.5C 33.1981,185.382 33.6981,187.048 34.5,188.5 Z"/></g>
<g><path style="opacity:1" fill="#517cbf" d="M 177.5,114.5 C 187.224,114.141 196.891,114.641 206.5,116C 207.701,116.903 208.535,118.069 209,119.5C 209.241,122.289 209.908,124.956 211,127.5C 217.269,132.725 224.436,135.225 232.5,135C 235.154,133.333 237.987,132.167 241,131.5C 243.909,131.731 246.409,132.897 248.5,135C 253.7,139.865 258.533,145.032 263,150.5C 263.667,152.5 263.667,154.5 263,156.5C 260.435,158.963 258.935,161.963 258.5,165.5C 260.32,170.48 262.154,175.48 264,180.5C 267.602,184.469 272.102,186.635 277.5,187C 278.863,188.945 279.697,191.112 280,193.5C 280.723,201.542 280.39,209.542 279,217.5C 278.626,218.416 278.126,219.25 277.5,220C 272.714,220.537 268.547,222.37 265,225.5C 261.495,231.473 259.495,237.806 259,244.5C 260.795,247.43 262.295,250.43 263.5,253.5C 263.378,255.791 262.545,257.791 261,259.5C 255.469,265.366 249.635,270.866 243.5,276C 241.833,276.667 240.167,276.667 238.5,276C 235.758,273.25 232.424,271.75 228.5,271.5C 222.074,272.965 216.24,275.631 211,279.5C 209.154,282.569 208.154,285.902 208,289.5C 207.097,290.701 205.931,291.535 204.5,292C 195.5,292.667 186.5,292.667 177.5,292C 176.584,291.626 175.75,291.126 175,290.5C 174.635,285.102 172.469,280.602 168.5,277C 162.519,273.668 156.186,272.001 149.5,272C 147.194,274.139 144.527,275.639 141.5,276.5C 132.267,271.436 124.767,264.436 119,255.5C 118.333,253.833 118.333,252.167 119,250.5C 121.712,247.91 123.212,244.743 123.5,241C 122.079,236.077 120.245,231.244 118,226.5C 114.398,222.531 109.898,220.365 104.5,220C 103.874,219.25 103.374,218.416 103,217.5C 102.333,208.167 102.333,198.833 103,189.5C 106.1,186.273 109.933,184.44 114.5,184C 115.667,182.833 116.833,181.667 118,180.5C 120.902,174.739 122.568,168.739 123,162.5C 121.436,159.629 119.936,156.796 118.5,154C 122.972,145.185 129.305,137.852 137.5,132C 141.809,130.802 145.476,131.802 148.5,135C 155.707,135.743 162.374,134.077 168.5,130C 171.972,126.556 173.972,122.389 174.5,117.5C 175.77,116.712 176.77,115.712 177.5,114.5 Z"/></g>
<g><path style="opacity:1" fill="#090b0d" d="M 181.5,134.5 C 219.92,133.108 245.42,150.442 258,186.5C 264.055,231.577 245.222,260.077 201.5,272C 161.139,274.409 135.305,256.242 124,217.5C 119.424,173.304 138.59,145.637 181.5,134.5 Z"/></g>
<g><path style="opacity:1" fill="#afcab2" d="M 177.5,140.5 C 214.919,136.78 240.086,152.447 253,187.5C 258.756,226.834 242.922,253.001 205.5,266C 171.583,270.959 147.083,258.126 132,227.5C 120.915,190.851 132.082,163.351 165.5,145C 169.571,143.37 173.571,141.87 177.5,140.5 Z"/></g>
<g><path style="opacity:1" fill="#101210" d="M 237.5,173.5 C 238.873,173.343 240.207,173.51 241.5,174C 242.451,174.718 242.617,175.551 242,176.5C 238.197,179.701 234.03,181.867 229.5,183C 228.253,181.506 228.253,180.006 229.5,178.5C 232.231,176.808 234.898,175.142 237.5,173.5 Z"/></g>
<g><path style="opacity:1" fill="#0e100e" d="M 140.5,173.5 C 145.875,174.019 150.209,176.352 153.5,180.5C 153.547,182 152.881,183 151.5,183.5C 148.04,181.867 144.706,180.034 141.5,178C 140.62,176.644 140.286,175.144 140.5,173.5 Z"/></g>
<g><path style="opacity:1" fill="#0f110f" d="M 217.5,152.5 C 219.635,152.147 220.968,152.98 221.5,155C 220.092,159.677 217.592,163.51 214,166.5C 212.5,166.333 211.667,165.5 211.5,164C 213.31,160.035 215.31,156.202 217.5,152.5 Z"/></g>
<g><path style="opacity:1" fill="#08090a" d="M 188.5,153.5 C 190.167,153.5 191.833,153.5 193.5,153.5C 197.269,158.701 200.269,164.368 202.5,170.5C 201.929,172.741 200.596,174.408 198.5,175.5C 197.337,181.137 197.17,186.804 198,192.5C 203.668,197.439 205.002,203.439 202,210.5C 197.205,216.587 191.372,217.92 184.5,214.5C 183.086,215.624 181.586,216.624 180,217.5C 179.907,220.007 179.074,222.174 177.5,224C 152.574,229.751 148.907,223.418 166.5,205C 168.938,204.318 171.105,204.818 173,206.5C 174.225,206.138 175.391,205.638 176.5,205C 178.071,201.929 179.571,198.762 181,195.5C 181.689,194.643 182.522,193.977 183.5,193.5C 184.833,187.5 184.833,181.5 183.5,175.5C 181.257,174.588 180.257,172.922 180.5,170.5C 182.366,164.435 185.033,158.768 188.5,153.5 Z"/></g>
<g><path style="opacity:1" fill="#101210" d="M 161.5,152.5 C 163.39,152.297 164.89,152.963 166,154.5C 167.08,156.996 168.414,159.33 170,161.5C 171.174,165.661 169.841,166.995 166,165.5C 164.587,162.339 162.92,159.339 161,156.5C 160.421,155.072 160.588,153.738 161.5,152.5 Z"/></g>
<g><path style="opacity:1" fill="#0e4b68" d="M 193.5,153.5 C 191.833,153.5 190.167,153.5 188.5,153.5C 188.337,151.143 188.503,148.81 189,146.5C 190.356,145.62 191.856,145.286 193.5,145.5C 193.5,148.167 193.5,150.833 193.5,153.5 Z"/></g>
<g><path style="opacity:0.01" fill="#000000" d="M 309.5,186.5 C 309.5,187.833 309.5,189.167 309.5,190.5C 308.167,189.167 308.167,187.833 309.5,186.5 Z"/></g>
<g><path style="opacity:0.008" fill="#000000" d="M 14.5,192.5 C 13.8333,191.167 13.8333,191.167 14.5,192.5 Z"/></g>
<g><path style="opacity:1" fill="#1a0d01" d="M 57.5,190.5 C 66.8393,190.334 76.1726,190.5 85.5,191C 86.3802,192.356 86.7135,193.856 86.5,195.5C 76.5,195.5 66.5,195.5 56.5,195.5C 56.366,193.708 56.6993,192.042 57.5,190.5 Z"/></g>
<g><path style="opacity:0.009" fill="#000000" d="M 307.5,191.5 C 308.573,192.251 308.74,193.251 308,194.5C 307.517,193.552 307.351,192.552 307.5,191.5 Z"/></g>
<g><path style="opacity:0.008" fill="#000000" d="M 14.5,194.5 C 13.8333,195.167 13.8333,195.167 14.5,194.5 Z"/></g>
<g><path style="opacity:0.01" fill="#000000" d="M 306.5,195.5 C 307.525,195.897 307.692,196.563 307,197.5C 306.536,196.906 306.369,196.239 306.5,195.5 Z"/></g>
<g><path style="opacity:0.004" fill="#000000" d="M 16.5,196.5 C 16.5,196.833 16.5,197.167 16.5,197.5C 15.8299,197.019 15.8299,196.685 16.5,196.5 Z"/></g>
<g><path style="opacity:0.015" fill="#000000" d="M 16.5,197.5 C 22.5092,197.334 28.5092,197.501 34.5,198C 28.3188,198.819 22.3188,198.653 16.5,197.5 Z"/></g>
<g><path style="opacity:1" fill="#4d75b5" d="M 190.5,159.5 C 193.786,162.4 195.786,166.067 196.5,170.5C 195.178,170.33 194.011,170.663 193,171.5C 192.333,179.5 192.333,187.5 193,195.5C 199.178,199.403 200.012,204.236 195.5,210C 186.895,212.734 183.062,209.567 184,200.5C 185.193,198.395 186.86,196.728 189,195.5C 189.667,187.5 189.667,179.5 189,171.5C 187.795,170.929 186.628,170.262 185.5,169.5C 187.18,166.14 188.847,162.807 190.5,159.5 Z"/></g>
<g><path style="opacity:0.01" fill="#000000" d="M 305.5,198.5 C 306.525,198.897 306.692,199.563 306,200.5C 305.536,199.906 305.369,199.239 305.5,198.5 Z"/></g>
<g><path style="opacity:1" fill="#06080d" d="M 188.5,198.5 C 193.835,198.005 196.335,200.338 196,205.5C 193.294,208.978 190.294,209.311 187,206.5C 186.109,203.502 186.609,200.836 188.5,198.5 Z"/></g>
<g><path style="opacity:1" fill="#1a1d1b" d="M 134.5,200.5 C 138.514,200.334 142.514,200.501 146.5,201C 147.554,202.388 147.72,203.888 147,205.5C 142.55,206.8 138.05,206.8 133.5,205.5C 132.288,203.572 132.621,201.905 134.5,200.5 Z"/></g>
<g><path style="opacity:1" fill="#131614" d="M 234.5,201.5 C 239.5,201.5 244.5,201.5 249.5,201.5C 249.714,203.144 249.38,204.644 248.5,206C 244.167,206.667 239.833,206.667 235.5,206C 234.62,204.644 234.286,203.144 234.5,201.5 Z"/></g>
<g><path style="opacity:0.008" fill="#000000" d="M 304.5,203.5 C 304.369,202.761 304.536,202.094 305,201.5C 305.692,202.437 305.525,203.103 304.5,203.5 Z"/></g>
<g><path style="opacity:0.008" fill="#000000" d="M 303.5,203.5 C 303.833,203.5 304.167,203.5 304.5,203.5C 304.672,204.492 304.338,205.158 303.5,205.5C 303.5,204.833 303.5,204.167 303.5,203.5 Z"/></g>
<g><path style="opacity:0.01" fill="#000000" d="M 302.5,205.5 C 302.833,205.5 303.167,205.5 303.5,205.5C 303.672,206.492 303.338,207.158 302.5,207.5C 302.5,206.833 302.5,206.167 302.5,205.5 Z"/></g>
<g><path style="opacity:0.008" fill="#000000" d="M 301.5,207.5 C 301.833,207.5 302.167,207.5 302.5,207.5C 302.672,208.492 302.338,209.158 301.5,209.5C 301.5,208.833 301.5,208.167 301.5,207.5 Z"/></g>
<g><path style="opacity:0.012" fill="#000000" d="M 51.5,208.5 C 50.8333,209.167 50.8333,209.167 51.5,208.5 Z"/></g>
<g><path style="opacity:0.012" fill="#000000" d="M 53.5,209.5 C 52.8333,210.167 52.8333,210.167 53.5,209.5 Z"/></g>
<g><path style="opacity:0.012" fill="#000000" d="M 300.5,209.5 C 300.833,209.5 301.167,209.5 301.5,209.5C 301.315,210.17 300.981,210.17 300.5,209.5 Z"/></g>
<g><path style="opacity:0.012" fill="#000000" d="M 55.5,210.5 C 54.8333,211.167 54.8333,211.167 55.5,210.5 Z"/></g>
<g><path style="opacity:0.012" fill="#000000" d="M 57.5,211.5 C 56.8333,212.167 56.8333,212.167 57.5,211.5 Z"/></g>
<g><path style="opacity:0.008" fill="#000000" d="M 299.5,211.5 C 300.833,212.167 300.833,212.167 299.5,211.5 Z"/></g>
<g><path style="opacity:0.012" fill="#000000" d="M 298.5,212.5 C 298.833,212.5 299.167,212.5 299.5,212.5C 299.315,213.17 298.981,213.17 298.5,212.5 Z"/></g>
<g><path style="opacity:0.004" fill="#000000" d="M 37.5,214.5 C 42.9846,213.348 48.6513,213.182 54.5,214C 48.8431,214.499 43.1764,214.666 37.5,214.5 Z"/></g>
<g><path style="opacity:0.004" fill="#000000" d="M 35.5,214.5 C 36.8333,215.167 36.8333,215.167 35.5,214.5 Z"/></g>
<g><path style="opacity:0.004" fill="#000000" d="M 56.5,215.5 C 55.8333,214.167 55.8333,214.167 56.5,215.5 Z"/></g>
<g><path style="opacity:1" fill="#3f5991" d="M 177.5,209.5 C 178.675,209.281 179.675,209.614 180.5,210.5C 178.462,212.276 176.296,213.943 174,215.5C 173.28,217.112 173.446,218.612 174.5,220C 170.167,220.667 165.833,220.667 161.5,220C 163.543,216.747 165.71,213.58 168,210.5C 171.492,213.235 174.658,212.902 177.5,209.5 Z"/></g>
<g><path style="opacity:0.008" fill="#000000" d="M 297.5,214.5 C 298.833,215.167 298.833,215.167 297.5,214.5 Z"/></g>
<g><path style="opacity:0.718" fill="#000000" d="M 56.5,216.5 C 56.7475,218.858 56.0808,220.858 54.5,222.5C 48.8333,222.5 43.1667,222.5 37.5,222.5C 35.0478,220.246 35.0478,218.079 37.5,216C 43.8837,215.249 50.217,215.416 56.5,216.5 Z"/></g>
<g><path style="opacity:0.004" fill="#000000" d="M 56.5,215.5 C 57.1667,215.5 57.5,215.833 57.5,216.5C 57.1667,216.167 56.8333,215.833 56.5,215.5 Z"/></g>
<g><path style="opacity:0.012" fill="#000000" d="M 296.5,215.5 C 296.833,215.5 297.167,215.5 297.5,215.5C 297.315,216.17 296.981,216.17 296.5,215.5 Z"/></g>
<g><path style="opacity:0.007" fill="#000000" d="M 57.5,216.5 C 59.8519,217.543 60.0185,218.876 58,220.5C 57.51,219.207 57.3433,217.873 57.5,216.5 Z"/></g>
<g><path style="opacity:0.016" fill="#000000" d="M 295.5,216.5 C 295.833,216.5 296.167,216.5 296.5,216.5C 296.315,217.17 295.981,217.17 295.5,216.5 Z"/></g>
<g><path style="opacity:0.012" fill="#000000" d="M 33.5,217.5 C 34.5735,218.251 34.7401,219.251 34,220.5C 33.5172,219.552 33.3505,218.552 33.5,217.5 Z"/></g>
<g><path style="opacity:0.004" fill="#000000" d="M 61.5,221.5 C 61.5,221.833 61.5,222.167 61.5,222.5C 60.8299,222.019 60.8299,221.685 61.5,221.5 Z"/></g>
<g><path style="opacity:0.008" fill="#000000" d="M 37.5,222.5 C 36.8333,223.167 36.8333,223.167 37.5,222.5 Z"/></g>
<g><path style="opacity:0.008" fill="#000000" d="M 54.5,222.5 C 55.8333,223.167 55.8333,223.167 54.5,222.5 Z"/></g>
<g><path style="opacity:0.008" fill="#000000" d="M 61.5,222.5 C 62.8333,223.167 62.8333,223.167 61.5,222.5 Z"/></g>
<g><path style="opacity:0.012" fill="#000000" d="M 69.5,223.5 C 70.8333,224.167 70.8333,224.167 69.5,223.5 Z"/></g>
<g><path style="opacity:0.012" fill="#000000" d="M 288.5,223.5 C 289.833,224.167 289.833,224.167 288.5,223.5 Z"/></g>
<g><path style="opacity:1" fill="#0e100e" d="M 149.5,224.5 C 150.833,224.5 152.167,224.5 153.5,224.5C 153.714,226.144 153.38,227.644 152.5,229C 149.294,231.034 145.96,232.867 142.5,234.5C 140.429,233.214 140.096,231.547 141.5,229.5C 144.231,227.808 146.898,226.142 149.5,224.5 Z"/></g>
<g><path style="opacity:1" fill="#0f110f" d="M 228.5,224.5 C 233.228,225.192 237.561,227.025 241.5,230C 242.03,234.106 240.363,235.106 236.5,233C 234.167,231.5 231.833,230 229.5,228.5C 228.571,227.311 228.238,225.978 228.5,224.5 Z"/></g>
<g><path style="opacity:0.016" fill="#000000" d="M 287.5,224.5 C 287.833,224.5 288.167,224.5 288.5,224.5C 288.315,225.17 287.981,225.17 287.5,224.5 Z"/></g>
<g><path style="opacity:0.012" fill="#000000" d="M 70.5,225.5 C 71.525,225.897 71.6917,226.563 71,227.5C 70.5357,226.906 70.369,226.239 70.5,225.5 Z"/></g>
<g><path style="opacity:0.008" fill="#000000" d="M 287.5,225.5 C 286.833,226.167 286.833,226.167 287.5,225.5 Z"/></g>
<g><path style="opacity:0.012" fill="#000000" d="M 284.5,226.5 C 285.833,227.167 285.833,227.167 284.5,226.5 Z"/></g>
<g><path style="opacity:0.006" fill="#000000" d="M 282.5,228.5 C 282.5,228.167 282.5,227.833 282.5,227.5C 283.167,227.5 283.833,227.5 284.5,227.5C 284.158,228.338 283.492,228.672 282.5,228.5 Z"/></g>
<g><path style="opacity:0.01" fill="#000000" d="M 72.5,228.5 C 72.6495,229.552 72.4828,230.552 72,231.5C 71.2599,230.251 71.4265,229.251 72.5,228.5 Z"/></g>
<g><path style="opacity:0.012" fill="#000000" d="M 282.5,228.5 C 281.833,229.167 281.833,229.167 282.5,228.5 Z"/></g>
<g><path style="opacity:0.01" fill="#000000" d="M 278.5,229.5 C 279.239,229.369 279.906,229.536 280.5,230C 279.563,230.692 278.897,230.525 278.5,229.5 Z"/></g>
<g><path style="opacity:0.012" fill="#000000" d="M 272.5,231.5 C 272.5,231.167 272.5,230.833 272.5,230.5C 279.167,230.833 279.167,231.167 272.5,231.5 Z"/></g>
<g><path style="opacity:0.012" fill="#000000" d="M 271.5,231.5 C 271.833,231.5 272.167,231.5 272.5,231.5C 272.167,234.167 271.833,234.167 271.5,231.5 Z"/></g>
<g><path style="opacity:0.009" fill="#000000" d="M 73.5,232.5 C 73.6495,233.552 73.4828,234.552 73,235.5C 72.2599,234.251 72.4265,233.251 73.5,232.5 Z"/></g>
<g><path style="opacity:0.01" fill="#000000" d="M 270.5,234.5 C 271.833,235.167 271.833,235.833 270.5,236.5C 270.5,235.833 270.5,235.167 270.5,234.5 Z"/></g>
<g><path style="opacity:0.01" fill="#000000" d="M 74.5,236.5 C 74.2627,237.791 74.596,238.791 75.5,239.5C 74.7494,240.573 73.7494,240.74 72.5,240C 73.0848,238.698 73.7515,237.531 74.5,236.5 Z"/></g>
<g><path style="opacity:0.01" fill="#000000" d="M 269.5,236.5 C 269.833,236.5 270.167,236.5 270.5,236.5C 270.167,239.167 269.833,239.167 269.5,236.5 Z"/></g>
<g><path style="opacity:0.008" fill="#000000" d="M 268.5,239.5 C 269.525,239.897 269.692,240.563 269,241.5C 268.536,240.906 268.369,240.239 268.5,239.5 Z"/></g>
<g><path style="opacity:0.004" fill="#000000" d="M 60.5,240.5 C 61.8333,241.167 61.8333,241.167 60.5,240.5 Z"/></g>
<g><path style="opacity:0.8" fill="#000000" d="M 60.5,241.5 C 61.3007,243.042 61.634,244.708 61.5,246.5C 60.8333,246.5 60.5,246.833 60.5,247.5C 54.1579,247.666 47.8246,247.5 41.5,247C 40.1667,245.333 40.1667,243.667 41.5,242C 47.8246,241.5 54.1579,241.334 60.5,241.5 Z"/></g>
<g><path style="opacity:1" fill="#0e100e" d="M 167.5,240.5 C 170.244,241.072 171.077,242.738 170,245.5C 168.414,247.67 167.08,250.004 166,252.5C 162.621,255.49 160.955,254.824 161,250.5C 162.928,246.968 165.095,243.634 167.5,240.5 Z"/></g>
<g><path style="opacity:1" fill="#101210" d="M 212.5,240.5 C 213.552,240.351 214.552,240.517 215.5,241C 217.918,244.424 219.918,248.09 221.5,252C 220.941,254.188 219.607,254.854 217.5,254C 215.542,251.252 213.709,248.418 212,245.5C 211.36,243.735 211.527,242.068 212.5,240.5 Z"/></g>
<g><path style="opacity:0.008" fill="#000000" d="M 62.5,242.5 C 63.8333,243.167 63.8333,243.167 62.5,242.5 Z"/></g>
<g><path style="opacity:0.008" fill="#000000" d="M 70.5,243.5 C 69.8333,242.167 69.8333,242.167 70.5,243.5 Z"/></g>
<g><path style="opacity:0.016" fill="#000000" d="M 269.5,243.5 C 268.833,242.167 268.833,242.167 269.5,243.5 Z"/></g>
<g><path style="opacity:0.008" fill="#000000" d="M 269.5,243.5 C 270.833,244.167 270.833,244.167 269.5,243.5 Z"/></g>
<g><path style="opacity:0.006" fill="#000000" d="M 62.5,246.5 C 62.369,245.761 62.5357,245.094 63,244.5C 63.6917,245.437 63.525,246.103 62.5,246.5 Z"/></g>
<g><path style="opacity:0.008" fill="#000000" d="M 70.5,245.5 C 69.8333,246.167 69.8333,246.167 70.5,245.5 Z"/></g>
<g><path style="opacity:0.004" fill="#000000" d="M 61.5,246.5 C 61.8333,246.5 62.1667,246.5 62.5,246.5C 62.3147,247.17 61.9813,247.17 61.5,246.5 Z"/></g>
<g><path style="opacity:0.008" fill="#000000" d="M 272.5,248.5 C 272.167,248.5 271.833,248.5 271.5,248.5C 271.833,245.833 272.167,245.833 272.5,248.5 Z"/></g>
<g><path style="opacity:0.008" fill="#000000" d="M 60.5,247.5 C 60.8333,247.5 61.1667,247.5 61.5,247.5C 61.3147,248.17 60.9813,248.17 60.5,247.5 Z"/></g>
<g><path style="opacity:1" fill="#0c0e0c" d="M 189.5,247.5 C 190.833,247.5 192.167,247.5 193.5,247.5C 193.666,252.179 193.499,256.845 193,261.5C 191.667,262.833 190.333,262.833 189,261.5C 188.227,256.748 188.393,252.081 189.5,247.5 Z"/></g>
<g><path style="opacity:0.014" fill="#000000" d="M 60.5,248.5 C 54.3471,249.653 48.0137,249.82 41.5,249C 47.8246,248.5 54.1579,248.334 60.5,248.5 Z"/></g>
<g><path style="opacity:0.008" fill="#000000" d="M 272.5,248.5 C 273.598,249.601 273.765,250.934 273,252.5C 272.51,251.207 272.343,249.873 272.5,248.5 Z"/></g>
<g><path style="opacity:0.008" fill="#000000" d="M 272.5,258.5 C 272.343,257.127 272.51,255.793 273,254.5C 273.765,256.066 273.598,257.399 272.5,258.5 Z"/></g>
<g><path style="opacity:0.01" fill="#000000" d="M 271.5,258.5 C 271.833,258.5 272.167,258.5 272.5,258.5C 272.672,259.492 272.338,260.158 271.5,260.5C 271.5,259.833 271.5,259.167 271.5,258.5 Z"/></g>
<g><path style="opacity:0.012" fill="#000000" d="M 270.5,260.5 C 270.833,260.5 271.167,260.5 271.5,260.5C 271.315,261.17 270.981,261.17 270.5,260.5 Z"/></g>
<g><path style="opacity:0.008" fill="#000000" d="M 269.5,262.5 C 270.833,263.167 270.833,263.167 269.5,262.5 Z"/></g>
<g><path style="opacity:0.005" fill="#000000" d="M 88.5,263.5 C 87.3064,264.777 85.6397,265.444 83.5,265.5C 81.8333,265.333 80.1667,265.167 78.5,265C 81.9194,264.752 85.2527,264.252 88.5,263.5 Z"/></g>
<g><path style="opacity:0.016" fill="#000000" d="M 268.5,263.5 C 268.833,263.5 269.167,263.5 269.5,263.5C 269.315,264.17 268.981,264.17 268.5,263.5 Z"/></g>
<g><path style="opacity:0.004" fill="#000000" d="M 34.5,265.5 C 28.8236,265.666 23.1569,265.499 17.5,265C 23.3487,264.182 29.0154,264.348 34.5,265.5 Z"/></g>
<g><path style="opacity:0.004" fill="#000000" d="M 42.5,265.5 C 51.3238,264.343 60.3238,264.176 69.5,265C 60.5062,265.5 51.5062,265.666 42.5,265.5 Z"/></g>
<g><path style="opacity:0.016" fill="#000000" d="M 267.5,264.5 C 267.833,264.5 268.167,264.5 268.5,264.5C 268.315,265.17 267.981,265.17 267.5,264.5 Z"/></g>
<g><path style="opacity:0.008" fill="#000000" d="M 34.5,265.5 C 35.8333,266.167 35.8333,266.167 34.5,265.5 Z"/></g>
<g><path style="opacity:0.004" fill="#000000" d="M 42.5,265.5 C 42.5,265.833 42.5,266.167 42.5,266.5C 41.8299,266.019 41.8299,265.685 42.5,265.5 Z"/></g>
<g><path style="opacity:0.714" fill="#000000" d="M 34.5,266.5 C 35.9418,267.82 36.6085,269.486 36.5,271.5C 35.8333,271.5 35.5,271.833 35.5,272.5C 29.5594,273.413 23.5594,273.746 17.5,273.5C 14.4119,271.635 14.0786,269.469 16.5,267C 22.4908,266.501 28.4908,266.334 34.5,266.5 Z"/></g>
<g><path style="opacity:0.721" fill="#000000" d="M 42.5,266.5 C 51.8393,266.334 61.1726,266.5 70.5,267C 72.4278,268.681 72.7612,270.514 71.5,272.5C 70.5084,272.328 69.8417,272.662 69.5,273.5C 60.5,273.5 51.5,273.5 42.5,273.5C 42.1667,272.5 41.5,271.833 40.5,271.5C 40.3915,269.486 41.0582,267.82 42.5,266.5 Z"/></g>
<g><path style="opacity:0.008" fill="#000000" d="M 13.5,267.5 C 14.8333,268.167 14.8333,268.167 13.5,267.5 Z"/></g>
<g><path style="opacity:0.01" fill="#000000" d="M 39.5,271.5 C 38.8333,271.5 38.1667,271.5 37.5,271.5C 38.1667,267.5 38.8333,267.5 39.5,271.5 Z"/></g>
<g><path style="opacity:0.012" fill="#000000" d="M 263.5,269.5 C 264.833,270.167 264.833,270.167 263.5,269.5 Z"/></g>
<g><path style="opacity:0.016" fill="#000000" d="M 262.5,270.5 C 262.833,270.5 263.167,270.5 263.5,270.5C 263.315,271.17 262.981,271.17 262.5,270.5 Z"/></g>
<g><path style="opacity:0.008" fill="#000000" d="M 36.5,271.5 C 36.8333,271.5 37.1667,271.5 37.5,271.5C 37.3147,272.17 36.9813,272.17 36.5,271.5 Z"/></g>
<g><path style="opacity:0.004" fill="#000000" d="M 39.5,271.5 C 39.8333,271.5 40.1667,271.5 40.5,271.5C 40.3147,272.17 39.9813,272.17 39.5,271.5 Z"/></g>
<g><path style="opacity:0.016" fill="#000000" d="M 261.5,271.5 C 261.833,271.5 262.167,271.5 262.5,271.5C 262.315,272.17 261.981,272.17 261.5,271.5 Z"/></g>
<g><path style="opacity:0.004" fill="#000000" d="M 35.5,272.5 C 35.8333,272.5 36.1667,272.5 36.5,272.5C 36.3147,273.17 35.9813,273.17 35.5,272.5 Z"/></g>
<g><path style="opacity:0.004" fill="#000000" d="M 71.5,272.5 C 72.8333,273.167 72.8333,273.167 71.5,272.5 Z"/></g>
<g><path style="opacity:0.016" fill="#000000" d="M 260.5,272.5 C 260.833,272.5 261.167,272.5 261.5,272.5C 261.315,273.17 260.981,273.17 260.5,272.5 Z"/></g>
<g><path style="opacity:0.004" fill="#000000" d="M 17.5,273.5 C 17.1034,274.525 16.4368,274.692 15.5,274C 16.0944,273.536 16.7611,273.369 17.5,273.5 Z"/></g>
<g><path style="opacity:0.008" fill="#000000" d="M 35.5,273.5 C 34.8333,274.167 34.8333,274.167 35.5,273.5 Z"/></g>
<g><path style="opacity:0.008" fill="#000000" d="M 42.5,273.5 C 41.8333,274.167 41.8333,274.167 42.5,273.5 Z"/></g>
<g><path style="opacity:0.004" fill="#000000" d="M 69.5,273.5 C 70.1667,273.5 70.8333,273.5 71.5,273.5C 70.8333,274.833 70.1667,274.833 69.5,273.5 Z"/></g>
<g><path style="opacity:0.004" fill="#000000" d="M 78.5,273.5 C 78.1034,274.525 77.4368,274.692 76.5,274C 77.0944,273.536 77.7611,273.369 78.5,273.5 Z"/></g>
<g><path style="opacity:0.016" fill="#000000" d="M 259.5,273.5 C 259.833,273.5 260.167,273.5 260.5,273.5C 260.315,274.17 259.981,274.17 259.5,273.5 Z"/></g>
<g><path style="opacity:0.012" fill="#000000" d="M 99.5,274.5 C 99.5,274.833 99.5,275.167 99.5,275.5C 98.8299,275.019 98.8299,274.685 99.5,274.5 Z"/></g>
<g><path style="opacity:0.016" fill="#000000" d="M 258.5,274.5 C 258.833,274.5 259.167,274.5 259.5,274.5C 259.315,275.17 258.981,275.17 258.5,274.5 Z"/></g>
<g><path style="opacity:0.008" fill="#000000" d="M 99.5,275.5 C 100.833,276.167 100.833,276.167 99.5,275.5 Z"/></g>
<g><path style="opacity:0.016" fill="#000000" d="M 257.5,275.5 C 257.833,275.5 258.167,275.5 258.5,275.5C 258.315,276.17 257.981,276.17 257.5,275.5 Z"/></g>
<g><path style="opacity:0.012" fill="#000000" d="M 256.5,276.5 C 256.833,276.5 257.167,276.5 257.5,276.5C 257.315,277.17 256.981,277.17 256.5,276.5 Z"/></g>
<g><path style="opacity:0.008" fill="#000000" d="M 255.5,277.5 C 255.833,277.5 256.167,277.5 256.5,277.5C 256.315,278.17 255.981,278.17 255.5,277.5 Z"/></g>
<g><path style="opacity:0.004" fill="#000000" d="M 253.5,279.5 C 253.5,279.167 253.5,278.833 253.5,278.5C 254.167,278.5 254.833,278.5 255.5,278.5C 255.158,279.338 254.492,279.672 253.5,279.5 Z"/></g>
<g><path style="opacity:0.008" fill="#000000" d="M 108.5,279.5 C 108.5,279.833 108.5,280.167 108.5,280.5C 105.833,280.167 105.833,279.833 108.5,279.5 Z"/></g>
<g><path style="opacity:0.012" fill="#000000" d="M 252.5,279.5 C 252.833,279.5 253.167,279.5 253.5,279.5C 253.315,280.17 252.981,280.17 252.5,279.5 Z"/></g>
<g><path style="opacity:0.008" fill="#000000" d="M 108.5,280.5 C 109.239,280.369 109.906,280.536 110.5,281C 109.563,281.692 108.897,281.525 108.5,280.5 Z"/></g>
<g><path style="opacity:0.016" fill="#000000" d="M 251.5,280.5 C 251.833,280.5 252.167,280.5 252.5,280.5C 252.315,281.17 251.981,281.17 251.5,280.5 Z"/></g>
<g><path style="opacity:0.01" fill="#000000" d="M 113.5,281.5 C 113.103,282.525 112.437,282.692 111.5,282C 112.094,281.536 112.761,281.369 113.5,281.5 Z"/></g>
<g><path style="opacity:0.012" fill="#000000" d="M 150.5,281.5 C 151.833,282.167 151.833,282.167 150.5,281.5 Z"/></g>
<g><path style="opacity:0.01" fill="#000000" d="M 225.5,282.5 C 225.5,282.167 225.5,281.833 225.5,281.5C 228.167,281.833 228.167,282.167 225.5,282.5 Z"/></g>
<g><path style="opacity:0.012" fill="#000000" d="M 250.5,281.5 C 250.833,281.5 251.167,281.5 251.5,281.5C 251.315,282.17 250.981,282.17 250.5,281.5 Z"/></g>
<g><path style="opacity:0.009" fill="#000000" d="M 117.5,282.5 C 116.749,283.573 115.749,283.74 114.5,283C 115.448,282.517 116.448,282.351 117.5,282.5 Z"/></g>
<g><path style="opacity:0.012" fill="#000000" d="M 149.5,282.5 C 149.833,282.5 150.167,282.5 150.5,282.5C 150.315,283.17 149.981,283.17 149.5,282.5 Z"/></g>
<g><path style="opacity:0.008" fill="#000000" d="M 158.5,282.5 C 158.103,283.525 157.437,283.692 156.5,283C 157.094,282.536 157.761,282.369 158.5,282.5 Z"/></g>
<g><path style="opacity:0.008" fill="#000000" d="M 223.5,283.5 C 223.5,283.167 223.5,282.833 223.5,282.5C 224.167,282.5 224.833,282.5 225.5,282.5C 225.158,283.338 224.492,283.672 223.5,283.5 Z"/></g>
<g><path style="opacity:0.004" fill="#000000" d="M 248.5,283.5 C 248.5,283.167 248.5,282.833 248.5,282.5C 249.167,282.5 249.833,282.5 250.5,282.5C 250.158,283.338 249.492,283.672 248.5,283.5 Z"/></g>
<g><path style="opacity:0.012" fill="#000000" d="M 134.5,283.5 C 129.35,284.651 124.016,284.817 118.5,284C 123.823,283.501 129.156,283.334 134.5,283.5 Z"/></g>
<g><path style="opacity:0.006" fill="#000000" d="M 147.5,284.5 C 147.5,284.167 147.5,283.833 147.5,283.5C 148.167,283.5 148.833,283.5 149.5,283.5C 149.158,284.338 148.492,284.672 147.5,284.5 Z"/></g>
<g><path style="opacity:0.007" fill="#000000" d="M 220.5,284.5 C 220.5,284.167 220.5,283.833 220.5,283.5C 221.5,283.5 222.5,283.5 223.5,283.5C 222.791,284.404 221.791,284.737 220.5,284.5 Z"/></g>
<g><path style="opacity:0.008" fill="#000000" d="M 234.5,283.5 C 234.5,283.833 234.5,284.167 234.5,284.5C 231.833,284.167 231.833,283.833 234.5,283.5 Z"/></g>
<g><path style="opacity:0.012" fill="#000000" d="M 247.5,283.5 C 247.833,283.5 248.167,283.5 248.5,283.5C 248.315,284.17 247.981,284.17 247.5,283.5 Z"/></g>
<g><path style="opacity:0.008" fill="#000000" d="M 137.5,284.5 C 137.5,284.833 137.5,285.167 137.5,285.5C 134.833,285.167 134.833,284.833 137.5,284.5 Z"/></g>
<g><path style="opacity:0.008" fill="#000000" d="M 145.5,284.5 C 146.167,284.5 146.833,284.5 147.5,284.5C 146.833,285.833 146.167,285.833 145.5,284.5 Z"/></g>
<g><path style="opacity:0.014" fill="#000000" d="M 163.5,284.5 C 163.103,285.525 162.437,285.692 161.5,285C 162.094,284.536 162.761,284.369 163.5,284.5 Z"/></g>
<g><path style="opacity:0.011" fill="#000000" d="M 218.5,284.5 C 219.167,284.5 219.833,284.5 220.5,284.5C 219.305,288.286 218.638,288.286 218.5,284.5 Z"/></g>
<g><path style="opacity:0.008" fill="#000000" d="M 234.5,284.5 C 235.239,284.369 235.906,284.536 236.5,285C 235.563,285.692 234.897,285.525 234.5,284.5 Z"/></g>
<g><path style="opacity:0.012" fill="#000000" d="M 245.5,284.5 C 246.833,285.167 246.833,285.167 245.5,284.5 Z"/></g>
<g><path style="opacity:0.01" fill="#000000" d="M 137.5,285.5 C 139.857,285.337 142.19,285.503 144.5,286C 141.961,286.796 139.628,286.629 137.5,285.5 Z"/></g>
<g><path style="opacity:0.008" fill="#000000" d="M 237.5,286.5 C 239.628,285.371 241.961,285.204 244.5,286C 242.19,286.497 239.857,286.663 237.5,286.5 Z"/></g>
<g><path style="opacity:0.009" fill="#000000" d="M 163.5,287.5 C 164.573,288.251 164.74,289.251 164,290.5C 163.517,289.552 163.351,288.552 163.5,287.5 Z"/></g>
<g><path style="opacity:0.01" fill="#000000" d="M 217.5,291.5 C 217.369,290.761 217.536,290.094 218,289.5C 218.692,290.437 218.525,291.103 217.5,291.5 Z"/></g>
<g><path style="opacity:0.006" fill="#000000" d="M 216.5,291.5 C 216.833,291.5 217.167,291.5 217.5,291.5C 217.672,292.492 217.338,293.158 216.5,293.5C 216.5,292.833 216.5,292.167 216.5,291.5 Z"/></g>
<g><path style="opacity:0.012" fill="#000000" d="M 215.5,293.5 C 215.833,293.5 216.167,293.5 216.5,293.5C 216.315,294.17 215.981,294.17 215.5,293.5 Z"/></g>
<g><path style="opacity:0.004" fill="#000000" d="M 214.5,294.5 C 214.833,294.5 215.167,294.5 215.5,294.5C 215.672,295.492 215.338,296.158 214.5,296.5C 214.5,295.833 214.5,295.167 214.5,294.5 Z"/></g>
<g><path style="opacity:0.004" fill="#000000" d="M 214.5,296.5 C 213.833,297.167 213.833,297.167 214.5,296.5 Z"/></g>
<g><path style="opacity:0.004" fill="#000000" d="M 213.5,297.5 C 212.833,298.167 212.833,298.167 213.5,297.5 Z"/></g>
<g><path style="opacity:0.012" fill="#000000" d="M 210.5,298.5 C 211.833,299.167 211.833,299.167 210.5,298.5 Z"/></g>
<g><path style="opacity:0.006" fill="#000000" d="M 171.5,300.5 C 171.842,299.662 172.508,299.328 173.5,299.5C 173.5,299.833 173.5,300.167 173.5,300.5C 172.833,300.5 172.167,300.5 171.5,300.5 Z"/></g>
<g><path style="opacity:0.006" fill="#000000" d="M 208.5,300.5 C 208.5,300.167 208.5,299.833 208.5,299.5C 209.167,299.5 209.833,299.5 210.5,299.5C 210.5,299.833 210.5,300.167 210.5,300.5C 209.833,300.5 209.167,300.5 208.5,300.5 Z"/></g>
</svg>
